<?xml version="1.0" encoding="UTF-8"?>
<!-- Generator: visioncortex VTracer 0.6.4 -->
<svg version="1.1" xmlns="http://www.w3.org/2000/svg" width="600" height="600">
<path d="M0 0 C5.67 -0.06 11.34 -0.12 17.19 -0.19 C19.86 -0.23 19.86 -0.23 22.59 -0.27 C24.01 -0.28 25.43 -0.29 26.86 -0.29 C27.95 -0.32 27.95 -0.32 29.07 -0.34 C33.58 -0.34 36.42 0.21 40 3 C43.5 7.95 43.9 13.13 43 19 C41.91 21.39 40.7 22.94 39 25 C38.67 25.66 38.34 26.32 38 27 C38.76 27.5 39.53 27.99 40.31 28.5 C43.72 31.67 45.22 34.41 46 39 C45.81 43.89 44.71 47.12 41.62 50.94 C36.71 54.8 33.15 55.28 26.95 55.2 C26.27 55.19 25.59 55.19 24.88 55.19 C22.34 55.18 19.79 55.15 17.25 55.12 C8.71 55.06 8.71 55.06 0 55 C0 36.85 0 18.7 0 0 Z M13 9 C13 13.62 13 18.24 13 23 C16.34 23.12 16.34 23.12 19.75 23.25 C21.63 23.32 21.63 23.32 23.55 23.39 C27.04 23.29 27.04 23.29 29.42 21.17 C31.22 19.03 31.22 19.03 31.56 16 C31.26 12.87 31.26 12.87 28.89 10.83 C25.36 8.59 23.33 8.58 19.19 8.75 C16.12 8.87 16.12 8.87 13 9 Z M13 32 C13 36.62 13 41.24 13 46 C16.31 46.09 16.31 46.09 19.69 46.19 C20.93 46.22 22.17 46.26 23.45 46.29 C27.24 45.98 29.06 45.37 32 43 C33.25 39.59 33.25 39.59 33 36 C31.59 33.62 31.59 33.62 29 32 C26.11 31.71 23.62 31.62 20.75 31.75 C20 31.77 19.26 31.79 18.49 31.8 C16.66 31.85 14.83 31.92 13 32 Z " fill="#0C004C" transform="translate(238,264)"/>
<path d="M0 0 C4.74 -0.1 9.49 -0.21 14.38 -0.31 C15.85 -0.36 17.33 -0.4 18.85 -0.45 C26.93 -0.54 33.36 0.08 40 5 C46.88 12.16 49.08 20.19 49 30 C47.99 37.82 45.75 44.45 40 50 C34.27 54.26 29.26 55.13 22.27 55.1 C20.51 55.09 20.51 55.09 18.73 55.09 C17.25 55.08 15.77 55.07 14.25 55.06 C9.55 55.04 4.85 55.02 0 55 C0 36.85 0 18.7 0 0 Z M13 10 C13 21.55 13 33.1 13 45 C23.75 45.8 23.75 45.8 31 41 C35.79 35.82 36.37 31.47 36.28 24.6 C35.69 19.1 33.37 15.41 29.56 11.5 C24.65 9.16 24.65 9.16 13 10 Z " fill="#0B004C" transform="translate(362,264)"/>
<path d="M0 0 C4.29 0 8.58 0 13 0 C13 7.26 13 14.52 13 22 C20.26 22 27.52 22 35 22 C35 14.74 35 7.48 35 0 C39.29 0 43.58 0 48 0 C48 18.15 48 36.3 48 55 C43.71 55 39.42 55 35 55 C35 47.41 35 39.82 35 32 C27.74 32 20.48 32 13 32 C13 39.59 13 47.18 13 55 C8.71 55 4.42 55 0 55 C0 36.85 0 18.7 0 0 Z " fill="#38B808" transform="translate(181,264)"/>
<path d="M0 0 C7.49 -0.12 7.49 -0.12 15.12 -0.25 C17.47 -0.3 17.47 -0.3 19.86 -0.36 C21.11 -0.37 22.35 -0.38 23.63 -0.39 C24.9 -0.41 26.17 -0.43 27.47 -0.45 C32.71 0.22 35.73 2.63 39.25 6.44 C42.91 11.79 43.89 16.59 43 23 C41.48 27.31 39.5 31 36 34 C35.34 34 34.68 34 34 34 C37.18 39.95 40.39 45.81 44.12 51.44 C45 53 45 53 45 55 C40.53 55.61 36.45 55.85 32 55 C28.16 51.66 26.08 47.4 24.01 42.81 C23.07 40.67 23.07 40.67 21 38 C17.87 37.1 15.3 37.05 12 37 C12 42.94 12 48.88 12 55 C8.04 55 4.08 55 0 55 C0 36.85 0 18.7 0 0 Z M12 10 C12 15.61 12 21.22 12 27 C15.62 27.12 15.62 27.12 19.31 27.25 C20.45 27.3 20.45 27.3 21.6 27.36 C24.77 27.41 26.54 27.41 28.95 25.27 C30.08 22.82 30.43 21.18 30.44 18.5 C30.46 17.75 30.48 16.99 30.5 16.22 C29.78 13.02 28.66 11.9 26 10 C22.5 9.52 22.5 9.52 18.75 9.75 C15.41 9.87 15.41 9.87 12 10 Z " fill="#0C004C" transform="translate(290,264)"/>
<path d="M0 0 C3.56 2.09 6.21 4.18 8.31 7.81 C8.31 8.8 8.31 9.79 8.31 10.81 C6.89 12.2 6.89 12.2 5 13.5 C4.39 13.94 3.77 14.37 3.14 14.82 C1.31 15.81 1.31 15.81 -1.69 15.81 C-2.31 15.03 -2.93 14.25 -3.56 13.44 C-6.72 9.53 -9.22 8.97 -14.12 8.44 C-18.43 8.89 -20.39 10.04 -23.69 12.81 C-27.45 18.01 -28.12 22.45 -27.69 28.81 C-25.99 34 -23.85 37.27 -19.69 40.81 C-15.39 42.24 -11.76 42.7 -7.49 40.87 C-3.05 38.36 -3.05 38.36 -0.69 34 C-0.69 33.28 -0.69 32.56 -0.69 31.81 C-3.99 31.81 -7.29 31.81 -10.69 31.81 C-10.69 29.17 -10.69 26.53 -10.69 23.81 C-3.76 23.81 3.17 23.81 10.31 23.81 C10.31 33.38 10.31 42.95 10.31 52.81 C6.68 52.81 3.05 52.81 -0.69 52.81 C-1.02 51.82 -1.35 50.83 -1.69 49.81 C-2.41 50.31 -3.13 50.8 -3.88 51.31 C-9.47 54.11 -16.92 53.74 -22.88 52.27 C-24.62 51.56 -24.62 51.56 -27.69 49.81 C-28.7 49.3 -29.71 48.78 -30.75 48.25 C-35.63 44.2 -39.61 38.17 -40.69 31.81 C-41.49 22.05 -40.69 13.82 -34.44 6 C-24.38 -2 -12.32 -5.86 0 0 Z " fill="#0C004C" transform="translate(454.6875,266.1875)"/>
<path d="M0 0 C12.87 0 25.74 0 39 0 C39 3.3 39 6.6 39 10 C30.42 10 21.84 10 13 10 C13 14.29 13 18.58 13 23 C20.26 23 27.52 23 35 23 C35 25.97 35 28.94 35 32 C27.74 32 20.48 32 13 32 C13 36.29 13 40.58 13 45 C21.91 45 30.82 45 40 45 C40 48.3 40 51.6 40 55 C26.8 55 13.6 55 0 55 C0 36.85 0 18.7 0 0 Z " fill="#0C004C" transform="translate(472,264)"/>
<path d="M0 0 C12.87 0 25.74 0 39 0 C39 3.3 39 6.6 39 10 C30.42 10 21.84 10 13 10 C13 14.29 13 18.58 13 23 C20.26 23 27.52 23 35 23 C35 25.97 35 28.94 35 32 C27.74 32 20.48 32 13 32 C13 36.29 13 40.58 13 45 C21.91 45 30.82 45 40 45 C40 48.3 40 51.6 40 55 C26.8 55 13.6 55 0 55 C0 36.85 0 18.7 0 0 Z " fill="#38B809" transform="translate(84,264)"/>
<path d="M0 0 C4.18 2.22 7.67 4.87 10.03 9.05 C10.15 11.12 10.15 11.12 9.03 13.05 C4.2 17.02 4.2 17.02 0.9 17.12 C-1.73 15.62 -3.13 13.43 -4.97 11.05 C-9.65 9.5 -13.48 9.56 -18.16 11.12 C-22.39 14.03 -24.27 17.38 -25.54 22.23 C-26.44 27.73 -25.9 32.26 -22.97 37.05 C-20.45 40.18 -17.92 42.57 -13.95 43.56 C-8.88 43.85 -5.77 42.22 -1.97 39.05 C-1.31 38.06 -0.65 37.07 0.03 36.05 C4.54 36.59 7.37 38.42 11.03 41.05 C8.81 47.27 4.66 50.06 -0.97 53.05 C-8.27 55.57 -17.53 55.21 -24.47 51.99 C-31.77 47.72 -36.79 41.26 -38.97 33.05 C-40.34 23.19 -38.82 15.19 -32.97 7.05 C-24.36 -1.57 -11.52 -3.66 0 0 Z " fill="#37B708" transform="translate(164.97265625,264.9453125)"/>
<path d="M0 0 C15.51 0 31.02 0 47 0 C47 2.97 47 5.94 47 9 C46.67 9.33 46.34 9.66 46 10 C40.39 10 34.78 10 29 10 C29 24.85 29 39.7 29 55 C25.04 55 21.08 55 17 55 C17 40.15 17 25.3 17 10 C11.39 10 5.78 10 0 10 C0 6.7 0 3.4 0 0 Z " fill="#38B709" transform="translate(33,264)"/>
<path d="M0 0 C3.96 0 7.92 0 12 0 C12 18.15 12 36.3 12 55 C8.04 55 4.08 55 0 55 C0 36.85 0 18.7 0 0 Z " fill="#0C004D" transform="translate(341,264)"/>
<path d="M0 0 C2.31 0 4.62 0 7 0 C7 12.21 7 24.42 7 37 C9.31 37 11.62 37 14 37 C14.43 35.64 14.43 35.64 14.88 34.25 C16 31 16 31 17.19 28.75 C17.46 28.17 17.72 27.6 18 27 C17.67 26.34 17.34 25.68 17 25 C16.72 21.83 16.73 19.62 18 16.69 C21.05 14.12 24.07 13.7 28 14 C31 15.44 31 15.44 33 18 C33.65 20.8 33.62 23.19 33 26 C30.95 28.96 29.71 29.81 26.25 30.75 C25.14 30.87 25.14 30.87 24 31 C23.73 31.89 23.46 32.77 23.19 33.69 C21.52 38.33 20.14 41.24 16 44 C13.22 44.34 13.22 44.34 10.06 44.38 C9.02 44.4 7.98 44.43 6.91 44.46 C4 44 4 44 1.84 42.54 C-0.9 38.76 -0.5 35.42 -0.39 30.86 C-0.38 29.98 -0.38 29.1 -0.37 28.19 C-0.35 25.37 -0.3 22.56 -0.25 19.75 C-0.23 17.84 -0.21 15.93 -0.2 14.02 C-0.15 9.35 -0.08 4.67 0 0 Z M24 21 C24 21.66 24 22.32 24 23 C24.99 22.67 25.98 22.34 27 22 C26.01 21.67 25.02 21.34 24 21 Z " fill="#0B004A" transform="translate(533,246)"/>
<path d="M0 0 C4 0.64 6.12 1.98 8.55 5.22 C12.14 10.66 12.14 10.66 12.14 14.34 C13.07 14.45 14 14.55 14.95 14.66 C18.31 15.38 19.13 15.71 21.14 18.34 C21.75 21.4 21.64 24.28 21.14 27.34 C19.37 29.78 18.16 30.18 15.23 30.65 C11.65 30.88 9.7 30.7 6.64 28.72 C4.73 25.69 4.77 23.87 5.14 20.34 C5.47 19.35 5.8 18.36 6.14 17.34 C5.39 15.04 5.39 15.04 4.08 12.72 C3.67 11.92 3.27 11.13 2.86 10.3 C0.9 7.65 0.9 7.65 -4.86 7.34 C-4.86 19.55 -4.86 31.76 -4.86 44.34 C-7.17 44.34 -9.48 44.34 -11.86 44.34 C-11.98 38.88 -12.07 33.42 -12.13 27.96 C-12.16 26.1 -12.19 24.24 -12.24 22.38 C-12.3 19.71 -12.33 17.04 -12.35 14.36 C-12.37 13.54 -12.4 12.71 -12.43 11.86 C-12.43 7.5 -12.27 5.86 -9.47 2.32 C-6.01 -0.3 -4.17 -0.28 0 0 Z M12.14 21.34 C12.14 22.33 12.14 23.32 12.14 24.34 C13.13 24.01 14.12 23.68 15.14 23.34 C14.81 22.68 14.48 22.02 14.14 21.34 C13.48 21.34 12.82 21.34 12.14 21.34 Z " fill="#0B004B" transform="translate(544.859375,296.65625)"/>
<path d="M0 0 C1.94 1.69 1.94 1.69 3 4 C3 8.21 2.62 10.27 -0.12 13.5 C-3.94 15.49 -5.92 15.21 -10 14 C-10.4 13.33 -10.79 12.66 -11.2 11.98 C-12.97 9.61 -12.97 9.61 -16.65 9.45 C-18.15 9.41 -19.66 9.39 -21.17 9.39 C-21.96 9.37 -22.76 9.36 -23.58 9.34 C-26.11 9.29 -28.65 9.27 -31.19 9.25 C-32.91 9.22 -34.63 9.19 -36.35 9.16 C-40.57 9.09 -44.78 9.04 -49 9 C-49 7.35 -49 5.7 -49 4 C-47.93 3.99 -46.86 3.98 -45.76 3.97 C-41.79 3.93 -37.81 3.87 -33.84 3.79 C-32.12 3.76 -30.4 3.74 -28.68 3.73 C-26.21 3.71 -23.74 3.66 -21.27 3.61 C-20.12 3.61 -20.12 3.61 -18.94 3.61 C-15.38 3.51 -13.44 3.37 -10.67 1.02 C-10.12 0.36 -9.57 -0.31 -9 -1 C-5.16 -2.28 -3.66 -1.6 0 0 Z M-7 4 C-7.33 4.99 -7.66 5.98 -8 7 C-7.67 7.66 -7.34 8.32 -7 9 C-5.68 8.67 -4.36 8.34 -3 8 C-3.33 6.68 -3.66 5.36 -4 4 C-4.99 4 -5.98 4 -7 4 Z " fill="#38B50B" transform="translate(568,287)"/>
</svg>
